<svg xmlns="http://www.w3.org/2000/svg" viewBox="10 12 44 48" fill="#8E7441" aria-hidden="true">
<defs>
  <filter id="ink-bleed" x="-10%" y="-10%" width="120%" height="120%">
    <feTurbulence type="fractalNoise" baseFrequency="1.8" numOctaves="2" seed="4" result="noise"/>
    <feDisplacementMap in="SourceGraphic" in2="noise" scale="0.9"/>
    <feGaussianBlur stdDeviation="0.25"/>
  </filter>
</defs>
<g filter="url(#ink-bleed)">
  <path d="M 31.20 15.99 L 31.13 20.74 L 31.08 25.50 L 31.03 30.25 L 31.00 35.00 L 31.03 39.75 L 31.08 44.50 L 31.13 49.26 L 31.20 54.01 L 32.80 53.99 L 32.78 49.24 L 32.77 44.50 L 32.78 39.75 L 32.80 35.00 L 32.78 30.25 L 32.77 25.50 L 32.78 20.76 L 32.80 16.01 Z"/>
  <path d="M 18.00 18.60 L 21.25 18.63 L 24.50 18.65 L 27.75 18.68 L 31.00 18.70 L 34.25 18.68 L 37.50 18.65 L 40.75 18.63 L 44.00 18.60 L 44.00 17.40 L 40.75 17.38 L 37.50 17.35 L 34.25 17.32 L 31.00 17.30 L 27.75 17.32 L 24.50 17.35 L 21.25 17.38 L 18.00 17.40 Z"/>
  <path d="M 18.00 19.80 L 21.25 19.82 L 24.50 19.85 L 27.75 19.88 L 31.00 19.90 L 34.25 19.88 L 37.50 19.85 L 40.75 19.82 L 44.00 19.80 L 44.00 18.60 L 40.75 18.57 L 37.50 18.55 L 34.25 18.52 L 31.00 18.50 L 27.75 18.52 L 24.50 18.55 L 21.25 18.57 L 18.00 18.60 Z"/>
  <path d="M 18.00 21.00 L 21.25 21.02 L 24.50 21.05 L 27.75 21.07 L 31.00 21.10 L 34.25 21.07 L 37.50 21.05 L 40.75 21.02 L 44.00 21.00 L 44.00 19.80 L 40.75 19.77 L 37.50 19.75 L 34.25 19.72 L 31.00 19.70 L 27.75 19.72 L 24.50 19.75 L 21.25 19.77 L 18.00 19.80 Z"/>
  <path d="M 18.00 22.20 L 21.25 22.23 L 24.50 22.25 L 27.75 22.28 L 31.00 22.30 L 34.25 22.28 L 37.50 22.25 L 40.75 22.23 L 44.00 22.20 L 44.00 21.00 L 40.75 20.98 L 37.50 20.95 L 34.25 20.93 L 31.00 20.90 L 27.75 20.93 L 24.50 20.95 L 21.25 20.98 L 18.00 21.00 Z"/>
  <path d="M 18.00 23.40 L 21.25 23.43 L 24.50 23.45 L 27.75 23.48 L 31.00 23.50 L 34.25 23.48 L 37.50 23.45 L 40.75 23.43 L 44.00 23.40 L 44.00 22.20 L 40.75 22.18 L 37.50 22.15 L 34.25 22.13 L 31.00 22.10 L 27.75 22.13 L 24.50 22.15 L 21.25 22.18 L 18.00 22.20 Z"/>
  <path d="M 18.00 24.60 L 21.25 24.63 L 24.50 24.65 L 27.75 24.68 L 31.00 24.70 L 34.25 24.68 L 37.50 24.65 L 40.75 24.63 L 44.00 24.60 L 44.00 23.40 L 40.75 23.38 L 37.50 23.35 L 34.25 23.32 L 31.00 23.30 L 27.75 23.32 L 24.50 23.35 L 21.25 23.38 L 18.00 23.40 Z"/>
  <path d="M 43.69 18.63 L 44.43 19.02 L 45.16 19.42 L 45.90 19.82 L 46.64 20.22 L 47.40 20.57 L 48.16 20.92 L 48.93 21.27 L 49.69 21.63 L 50.31 20.37 L 49.57 19.98 L 48.84 19.58 L 48.10 19.18 L 47.36 18.78 L 46.60 18.43 L 45.84 18.08 L 45.07 17.73 L 44.31 17.37 Z"/>
  <path d="M 49.69 20.37 L 48.93 20.73 L 48.16 21.08 L 47.40 21.43 L 46.64 21.78 L 45.90 22.18 L 45.16 22.58 L 44.43 22.98 L 43.69 23.37 L 44.31 24.63 L 45.07 24.27 L 45.84 23.92 L 46.60 23.57 L 47.36 23.22 L 48.10 22.82 L 48.84 22.42 L 49.57 22.02 L 50.31 21.63 Z"/>
  <path d="M 17.40 18.00 L 17.38 18.75 L 17.35 19.50 L 17.32 20.25 L 17.30 21.00 L 17.32 21.75 L 17.35 22.50 L 17.38 23.25 L 17.40 24.00 L 18.60 24.00 L 18.63 23.25 L 18.65 22.50 L 18.68 21.75 L 18.70 21.00 L 18.68 20.25 L 18.65 19.50 L 18.63 18.75 L 18.60 18.00 Z"/>
  <path d="M 45.40 32.00 L 45.38 33.00 L 45.35 34.00 L 45.33 35.00 L 45.30 36.00 L 45.33 37.00 L 45.35 38.00 L 45.38 39.00 L 45.40 40.00 L 46.60 40.00 L 46.63 39.00 L 46.65 38.00 L 46.67 37.00 L 46.70 36.00 L 46.67 35.00 L 46.65 34.00 L 46.63 33.00 L 46.60 32.00 Z"/>
  <path d="M 46.00 31.40 L 42.75 31.38 L 39.50 31.35 L 36.25 31.32 L 33.00 31.30 L 29.75 31.32 L 26.50 31.35 L 23.25 31.38 L 20.00 31.40 L 20.00 32.60 L 23.25 32.63 L 26.50 32.65 L 29.75 32.67 L 33.00 32.70 L 36.25 32.67 L 39.50 32.65 L 42.75 32.63 L 46.00 32.60 Z"/>
  <path d="M 46.00 39.40 L 42.75 39.38 L 39.50 39.35 L 36.25 39.33 L 33.00 39.30 L 29.75 39.33 L 26.50 39.35 L 23.25 39.38 L 20.00 39.40 L 20.00 40.60 L 23.25 40.63 L 26.50 40.65 L 29.75 40.67 L 33.00 40.70 L 36.25 40.67 L 39.50 40.65 L 42.75 40.63 L 46.00 40.60 Z"/>
  <path d="M 19.61 31.42 L 18.85 31.90 L 18.08 32.38 L 17.32 32.86 L 16.56 33.33 L 15.82 33.86 L 15.08 34.38 L 14.35 34.90 L 13.61 35.42 L 14.39 36.58 L 15.15 36.10 L 15.92 35.62 L 16.68 35.14 L 17.44 34.67 L 18.18 34.14 L 18.92 33.62 L 19.65 33.10 L 20.39 32.58 Z"/>
  <path d="M 13.61 36.58 L 14.35 37.10 L 15.08 37.62 L 15.82 38.14 L 16.56 38.67 L 17.32 39.14 L 18.08 39.62 L 18.85 40.10 L 19.61 40.58 L 20.39 39.42 L 19.65 38.90 L 18.92 38.38 L 18.18 37.86 L 17.44 37.33 L 16.68 36.86 L 15.92 36.38 L 15.15 35.90 L 14.39 35.42 Z"/>
  <path d="M 18.01 56.50 L 21.51 56.56 L 25.00 56.62 L 28.50 56.71 L 32.00 56.80 L 35.50 56.71 L 39.00 56.62 L 42.49 56.56 L 45.99 56.50 L 46.01 55.50 L 42.51 55.36 L 39.00 55.23 L 35.50 55.11 L 32.00 55.00 L 28.50 55.11 L 25.00 55.23 L 21.49 55.36 L 17.99 55.50 Z"/>
</g>
</svg>
