<svg xmlns="http://www.w3.org/2000/svg" viewBox="6 5 52 50" fill="#8E7441" aria-hidden="true">
<defs>
  <filter id="ink-bleed" x="-10%" y="-10%" width="120%" height="120%">
    <feTurbulence type="fractalNoise" baseFrequency="1.8" numOctaves="2" seed="4" result="noise"/>
    <feDisplacementMap in="SourceGraphic" in2="noise" scale="0.9"/>
    <feGaussianBlur stdDeviation="0.25"/>
  </filter>
</defs>
<g filter="url(#ink-bleed)">
  <path d="M 25.30 18.01 L 25.32 21.51 L 25.33 25.01 L 25.32 28.50 L 25.30 32.00 L 25.27 35.50 L 25.23 38.99 L 25.17 42.49 L 25.10 45.99 L 26.90 46.01 L 26.92 42.51 L 26.92 39.01 L 26.92 35.50 L 26.90 32.00 L 26.87 28.50 L 26.82 24.99 L 26.77 21.49 L 26.70 17.99 Z"/>
  <path d="M 33.30 17.99 L 33.23 21.49 L 33.18 24.99 L 33.13 28.50 L 33.10 32.00 L 33.08 35.50 L 33.08 39.01 L 33.08 42.51 L 33.10 46.01 L 34.90 45.99 L 34.83 42.49 L 34.77 38.99 L 34.73 35.50 L 34.70 32.00 L 34.68 28.50 L 34.67 25.01 L 34.68 21.51 L 34.70 18.01 Z"/>
  <path d="M 22.00 18.70 L 24.00 18.75 L 26.00 18.80 L 28.00 18.85 L 30.00 18.90 L 32.00 18.85 L 34.00 18.80 L 36.00 18.75 L 38.00 18.70 L 38.00 17.30 L 36.00 17.25 L 34.00 17.20 L 32.00 17.15 L 30.00 17.10 L 28.00 17.15 L 26.00 17.20 L 24.00 17.25 L 22.00 17.30 Z"/>
  <path d="M 20.00 14.70 L 22.50 14.78 L 25.00 14.85 L 27.50 14.93 L 30.00 15.00 L 32.50 14.93 L 35.00 14.85 L 37.50 14.78 L 40.00 14.70 L 40.00 13.30 L 37.50 13.22 L 35.00 13.15 L 32.50 13.07 L 30.00 13.00 L 27.50 13.07 L 25.00 13.15 L 22.50 13.22 L 20.00 13.30 Z"/>
  <path d="M 19.37 14.31 L 19.62 14.81 L 19.87 15.31 L 20.12 15.81 L 20.37 16.31 L 20.62 16.81 L 20.87 17.31 L 21.12 17.81 L 21.37 18.31 L 22.63 17.69 L 22.38 17.19 L 22.13 16.69 L 21.88 16.19 L 21.63 15.69 L 21.38 15.19 L 21.13 14.69 L 20.88 14.19 L 20.63 13.69 Z"/>
  <path d="M 39.37 13.69 L 39.12 14.19 L 38.87 14.69 L 38.62 15.19 L 38.37 15.69 L 38.12 16.19 L 37.87 16.69 L 37.62 17.19 L 37.37 17.69 L 38.63 18.31 L 38.88 17.81 L 39.13 17.31 L 39.38 16.81 L 39.63 16.31 L 39.88 15.81 L 40.13 15.31 L 40.38 14.81 L 40.63 14.31 Z"/>
  <path d="M 28.80 20.00 L 28.77 23.00 L 28.75 26.00 L 28.73 29.00 L 28.70 32.00 L 28.73 35.00 L 28.75 38.00 L 28.77 41.00 L 28.80 44.00 L 29.20 44.00 L 29.23 41.00 L 29.25 38.00 L 29.27 35.00 L 29.30 32.00 L 29.27 29.00 L 29.25 26.00 L 29.23 23.00 L 29.20 20.00 Z"/>
  <path d="M 31.80 20.00 L 31.77 23.00 L 31.75 26.00 L 31.73 29.00 L 31.70 32.00 L 31.73 35.00 L 31.75 38.00 L 31.77 41.00 L 31.80 44.00 L 32.20 44.00 L 32.23 41.00 L 32.25 38.00 L 32.27 35.00 L 32.30 32.00 L 32.27 29.00 L 32.25 26.00 L 32.23 23.00 L 32.20 20.00 Z"/>
  <path d="M 22.00 46.70 L 24.00 46.77 L 26.00 46.85 L 28.00 46.92 L 30.00 47.00 L 32.00 46.92 L 34.00 46.85 L 36.00 46.77 L 38.00 46.70 L 38.00 45.30 L 36.00 45.23 L 34.00 45.15 L 32.00 45.08 L 30.00 45.00 L 28.00 45.08 L 26.00 45.15 L 24.00 45.23 L 22.00 45.30 Z"/>
  <path d="M 20.00 50.70 L 22.50 50.77 L 25.00 50.85 L 27.50 50.92 L 30.00 51.00 L 32.50 50.92 L 35.00 50.85 L 37.50 50.77 L 40.00 50.70 L 40.00 49.30 L 37.50 49.23 L 35.00 49.15 L 32.50 49.08 L 30.00 49.00 L 27.50 49.08 L 25.00 49.15 L 22.50 49.23 L 20.00 49.30 Z"/>
  <path d="M 7.99 54.50 L 13.99 54.69 L 20.00 54.86 L 26.00 55.02 L 32.00 55.15 L 38.00 55.02 L 44.00 54.86 L 50.01 54.69 L 56.01 54.50 L 55.99 53.50 L 49.99 53.44 L 44.00 53.36 L 38.00 53.27 L 32.00 53.15 L 26.00 53.27 L 20.00 53.36 L 14.01 53.44 L 8.01 53.50 Z"/>
</g>
</svg>
