<svg xmlns="http://www.w3.org/2000/svg" viewBox="0 0 64 64" fill="#8E7441" aria-hidden="true">
<defs>
  <filter id="ink-bleed" x="-10%" y="-10%" width="120%" height="120%">
    <feTurbulence type="fractalNoise" baseFrequency="1.8" numOctaves="2" seed="4" result="noise"/>
    <feDisplacementMap in="SourceGraphic" in2="noise" scale="0.9"/>
    <feGaussianBlur stdDeviation="0.25"/>
  </filter>
</defs>
<g filter="url(#ink-bleed)">
  <path d="M 31.50 18.01 L 31.36 22.51 L 31.15 27.01 L 30.86 31.49 L 30.50 35.97 L 30.11 40.44 L 29.65 44.91 L 29.12 49.37 L 28.51 53.82 L 31.49 54.18 L 31.90 49.66 L 32.24 45.14 L 32.51 40.62 L 32.70 36.09 L 32.76 31.57 L 32.75 27.04 L 32.66 22.52 L 32.50 17.99 Z"/>
  <path d="M 31.50 17.99 L 31.34 22.52 L 31.25 27.04 L 31.24 31.57 L 31.30 36.09 L 31.49 40.62 L 31.76 45.14 L 32.10 49.66 L 32.51 54.18 L 35.49 53.82 L 34.88 49.37 L 34.35 44.91 L 33.89 40.44 L 33.50 35.97 L 33.14 31.49 L 32.85 27.01 L 32.64 22.51 L 32.50 18.01 Z"/>
  <path d="M 29.00 28.25 L 29.75 28.29 L 30.50 28.32 L 31.25 28.36 L 32.00 28.40 L 32.75 28.36 L 33.50 28.32 L 34.25 28.29 L 35.00 28.25 L 35.00 27.75 L 34.25 27.71 L 33.50 27.68 L 32.75 27.64 L 32.00 27.60 L 31.25 27.64 L 30.50 27.68 L 29.75 27.71 L 29.00 27.75 Z"/>
  <path d="M 29.00 36.25 L 29.88 36.29 L 30.75 36.33 L 31.63 36.36 L 32.50 36.40 L 33.38 36.36 L 34.25 36.33 L 35.13 36.29 L 36.00 36.25 L 36.00 35.75 L 35.13 35.71 L 34.25 35.67 L 33.38 35.64 L 32.50 35.60 L 31.63 35.64 L 30.75 35.67 L 29.88 35.71 L 29.00 35.75 Z"/>
  <path d="M 29.00 44.25 L 29.88 44.29 L 30.75 44.33 L 31.63 44.36 L 32.50 44.40 L 33.38 44.36 L 34.25 44.33 L 35.13 44.29 L 36.00 44.25 L 36.00 43.75 L 35.13 43.71 L 34.25 43.67 L 33.38 43.64 L 32.50 43.60 L 31.63 43.64 L 30.75 43.67 L 29.88 43.71 L 29.00 43.75 Z"/>
  <path d="M 32.03 17.70 L 29.10 17.15 L 26.26 16.42 L 23.50 15.53 L 20.83 14.47 L 18.09 13.59 L 15.39 12.52 L 12.73 11.27 L 10.11 9.83 L 9.89 10.17 L 12.32 11.96 L 14.84 13.59 L 17.45 15.05 L 20.15 16.35 L 23.04 17.11 L 25.97 17.69 L 28.95 18.09 L 31.97 18.30 Z"/>
  <path d="M 32.15 17.74 L 29.62 16.17 L 27.03 14.71 L 24.39 13.36 L 21.68 12.12 L 18.81 11.36 L 15.91 10.72 L 12.99 10.20 L 10.04 9.80 L 9.96 10.20 L 12.81 10.98 L 15.60 11.87 L 18.33 12.88 L 21.00 14.00 L 23.76 14.88 L 26.48 15.88 L 29.18 17.01 L 31.85 18.26 Z"/>
  <path d="M 32.17 17.81 L 30.68 16.21 L 29.32 14.55 L 28.06 12.83 L 26.92 11.06 L 25.60 9.41 L 24.37 7.67 L 23.23 5.84 L 22.18 3.92 L 21.82 4.08 L 22.56 6.17 L 23.41 8.20 L 24.37 10.18 L 25.45 12.10 L 26.91 13.76 L 28.46 15.32 L 30.10 16.80 L 31.83 18.19 Z"/>
  <path d="M 32.23 17.90 L 31.48 15.82 L 30.61 13.79 L 29.64 11.81 L 28.55 9.90 L 27.08 8.25 L 25.52 6.69 L 23.87 5.23 L 22.13 3.85 L 21.87 4.15 L 23.34 5.76 L 24.70 7.43 L 25.95 9.16 L 27.08 10.94 L 28.39 12.60 L 29.61 14.34 L 30.73 16.17 L 31.77 18.10 Z"/>
  <path d="M 32.25 17.99 L 32.31 15.95 L 32.47 13.95 L 32.71 11.96 L 33.05 10.01 L 33.19 8.02 L 33.43 6.04 L 33.76 4.05 L 34.19 2.06 L 33.81 1.94 L 33.09 3.87 L 32.45 5.82 L 31.91 7.80 L 31.46 9.81 L 31.39 11.86 L 31.42 13.91 L 31.54 15.96 L 31.75 18.01 Z"/>
  <path d="M 32.24 18.08 L 32.95 16.14 L 33.57 14.18 L 34.10 12.20 L 34.54 10.19 L 34.60 8.14 L 34.56 6.09 L 34.43 4.04 L 34.20 1.99 L 33.80 2.01 L 33.73 4.05 L 33.56 6.05 L 33.30 8.04 L 32.95 9.99 L 32.79 11.97 L 32.55 13.96 L 32.20 15.94 L 31.76 17.92 Z"/>
  <path d="M 32.22 18.12 L 33.52 16.18 L 34.90 14.34 L 36.37 12.59 L 37.92 10.93 L 39.31 9.14 L 40.81 7.41 L 42.41 5.75 L 44.12 4.16 L 43.88 3.84 L 41.93 5.18 L 40.05 6.61 L 38.26 8.14 L 36.56 9.76 L 35.20 11.69 L 33.96 13.69 L 32.82 15.75 L 31.78 17.88 Z"/>
  <path d="M 32.15 18.20 L 34.10 16.85 L 35.96 15.41 L 37.74 13.87 L 39.44 12.24 L 40.79 10.30 L 42.02 8.30 L 43.15 6.23 L 44.18 4.10 L 43.82 3.90 L 42.51 5.84 L 41.12 7.68 L 39.64 9.42 L 38.08 11.07 L 36.68 12.85 L 35.18 14.57 L 33.57 16.22 L 31.85 17.80 Z"/>
  <path d="M 32.14 18.27 L 35.06 17.01 L 38.02 15.89 L 41.00 14.88 L 44.00 14.00 L 46.93 12.88 L 49.91 11.87 L 52.94 10.98 L 56.03 10.20 L 55.97 9.80 L 52.78 10.19 L 49.62 10.71 L 46.48 11.34 L 43.37 12.10 L 40.41 13.34 L 37.51 14.69 L 34.66 16.16 L 31.86 17.73 Z"/>
  <path d="M 32.03 18.30 L 35.28 18.09 L 38.49 17.70 L 41.66 17.13 L 44.79 16.37 L 47.74 15.08 L 50.61 13.61 L 53.40 11.97 L 56.11 10.17 L 55.89 9.83 L 53.02 11.27 L 50.10 12.52 L 47.15 13.59 L 44.16 14.47 L 41.23 15.54 L 38.22 16.43 L 35.14 17.15 L 31.97 17.70 Z"/>
  <path d="M 32.00 18.30 L 35.30 18.52 L 38.57 18.86 L 41.81 19.32 L 45.02 19.90 L 48.26 20.29 L 51.49 20.79 L 54.72 21.43 L 57.94 22.19 L 58.06 21.81 L 54.92 20.71 L 51.74 19.72 L 48.53 18.86 L 45.29 18.12 L 41.98 17.83 L 38.66 17.66 L 35.33 17.62 L 32.00 17.70 Z"/>
  <path d="M 31.89 18.28 L 35.01 19.58 L 38.17 20.69 L 41.38 21.62 L 44.64 22.37 L 47.97 22.61 L 51.31 22.66 L 54.66 22.52 L 58.01 22.20 L 57.99 21.80 L 54.64 21.77 L 51.35 21.56 L 48.11 21.17 L 44.91 20.59 L 41.69 20.16 L 38.49 19.53 L 35.29 18.72 L 32.11 17.72 Z"/>
  <path d="M 31.89 17.72 L 28.71 18.72 L 25.51 19.53 L 22.31 20.16 L 19.09 20.59 L 15.89 21.17 L 12.65 21.56 L 9.36 21.77 L 6.01 21.80 L 5.99 22.20 L 9.34 22.52 L 12.69 22.66 L 16.03 22.61 L 19.36 22.37 L 22.62 21.62 L 25.83 20.69 L 28.99 19.58 L 32.11 18.28 Z"/>
  <path d="M 32.00 17.70 L 28.67 17.62 L 25.34 17.66 L 22.02 17.83 L 18.71 18.12 L 15.47 18.86 L 12.26 19.72 L 9.08 20.71 L 5.94 21.81 L 6.06 22.19 L 9.28 21.43 L 12.51 20.79 L 15.74 20.29 L 18.98 19.90 L 22.19 19.32 L 25.43 18.86 L 28.70 18.52 L 32.00 18.30 Z"/>
  <path d="M 31.84 17.81 L 29.73 19.33 L 27.58 20.74 L 25.38 22.04 L 23.12 23.22 L 20.93 24.52 L 18.67 25.72 L 16.34 26.82 L 13.94 27.81 L 14.06 28.19 L 16.58 27.45 L 19.05 26.59 L 21.48 25.62 L 23.85 24.53 L 26.03 23.10 L 28.15 21.57 L 30.19 19.93 L 32.16 18.19 Z"/>
  <path d="M 31.92 17.76 L 29.40 18.52 L 26.94 19.39 L 24.52 20.37 L 22.15 21.47 L 19.97 22.91 L 17.87 24.45 L 15.83 26.10 L 13.87 27.85 L 14.13 28.15 L 16.24 26.64 L 18.41 25.24 L 20.62 23.95 L 22.88 22.78 L 25.07 21.49 L 27.34 20.30 L 29.67 19.22 L 32.08 18.24 Z"/>
  <path d="M 31.92 18.24 L 34.33 19.22 L 36.66 20.30 L 38.93 21.49 L 41.12 22.78 L 43.38 23.95 L 45.59 25.24 L 47.76 26.64 L 49.87 28.15 L 50.13 27.85 L 48.17 26.10 L 46.13 24.45 L 44.03 22.91 L 41.85 21.47 L 39.48 20.37 L 37.06 19.39 L 34.60 18.52 L 32.08 17.76 Z"/>
  <path d="M 31.84 18.19 L 33.81 19.93 L 35.85 21.57 L 37.97 23.10 L 40.15 24.53 L 42.52 25.62 L 44.95 26.59 L 47.42 27.45 L 49.94 28.19 L 50.06 27.81 L 47.66 26.82 L 45.33 25.72 L 43.07 24.52 L 40.88 23.22 L 38.62 22.04 L 36.42 20.74 L 34.27 19.33 L 32.16 17.81 Z"/>
  <path d="M 29.89 20.28 L 30.39 20.53 L 30.91 20.74 L 31.45 20.90 L 32.00 21.00 L 32.55 20.90 L 33.09 20.74 L 33.61 20.53 L 34.11 20.28 L 33.89 19.72 L 33.39 19.82 L 32.91 19.86 L 32.45 19.85 L 32.00 19.80 L 31.55 19.85 L 31.09 19.86 L 30.61 19.82 L 30.11 19.72 Z"/>
  <path d="M 4.30 54.01 L 4.66 51.72 L 5.11 49.46 L 5.65 47.24 L 6.29 45.07 L 6.66 42.83 L 7.13 40.60 L 7.70 38.37 L 8.37 36.15 L 7.63 35.85 L 6.62 37.98 L 5.70 40.14 L 4.87 42.35 L 4.15 44.59 L 3.88 46.93 L 3.72 49.28 L 3.66 51.63 L 3.70 53.99 Z"/>
  <path d="M 7.65 36.19 L 8.56 38.39 L 9.38 40.61 L 10.10 42.84 L 10.72 45.09 L 11.60 47.26 L 12.39 49.48 L 13.09 51.74 L 13.70 54.05 L 14.30 53.95 L 14.07 51.54 L 13.75 49.15 L 13.33 46.76 L 12.80 44.40 L 11.83 42.18 L 10.76 40.01 L 9.60 37.89 L 8.35 35.81 Z"/>
  <path d="M 7.86 42.20 L 8.32 42.64 L 8.73 43.09 L 9.10 43.56 L 9.42 44.06 L 9.81 44.51 L 10.16 44.99 L 10.48 45.52 L 10.76 46.08 L 11.24 45.92 L 11.05 45.27 L 10.82 44.65 L 10.54 44.04 L 10.22 43.46 L 9.75 42.99 L 9.25 42.55 L 8.71 42.15 L 8.14 41.80 Z"/>
  <path d="M 10.17 49.81 L 9.74 49.40 L 9.30 49.01 L 8.83 48.65 L 8.34 48.33 L 7.78 48.13 L 7.21 47.97 L 6.64 47.84 L 6.05 47.76 L 5.95 48.24 L 6.48 48.42 L 6.99 48.63 L 7.47 48.87 L 7.93 49.13 L 8.42 49.34 L 8.90 49.59 L 9.37 49.87 L 9.83 50.19 Z"/>
  <path d="M 16.59 53.87 L 16.29 52.41 L 16.04 50.94 L 15.85 49.46 L 15.70 47.98 L 15.49 46.51 L 15.33 45.02 L 15.21 43.52 L 15.15 42.01 L 14.85 41.99 L 14.69 43.51 L 14.58 45.03 L 14.51 46.56 L 14.50 48.08 L 14.66 49.60 L 14.86 51.11 L 15.11 52.62 L 15.41 54.13 Z"/>
  <path d="M 19.60 54.00 L 19.60 52.00 L 19.60 50.00 L 19.60 48.00 L 19.60 46.00 L 19.49 44.00 L 19.38 42.00 L 19.26 40.00 L 19.15 38.00 L 18.85 38.00 L 18.74 40.00 L 18.63 42.00 L 18.51 44.00 L 18.40 46.00 L 18.40 48.00 L 18.40 50.00 L 18.40 52.00 L 18.40 54.00 Z"/>
  <path d="M 21.59 54.13 L 21.82 52.87 L 22.02 51.61 L 22.18 50.35 L 22.30 49.08 L 22.32 47.81 L 22.30 46.54 L 22.24 45.27 L 22.15 44.00 L 21.85 44.00 L 21.77 45.26 L 21.65 46.51 L 21.49 47.75 L 21.30 48.98 L 21.13 50.21 L 20.93 51.44 L 20.69 52.66 L 20.41 53.87 Z"/>
  <path d="M 48.62 53.67 L 47.38 51.28 L 46.22 48.87 L 45.12 46.43 L 44.09 43.96 L 43.01 41.51 L 41.98 39.03 L 41.03 36.51 L 40.14 33.96 L 39.86 34.04 L 40.48 36.68 L 41.18 39.30 L 41.95 41.90 L 42.79 44.48 L 43.84 46.99 L 44.95 49.46 L 46.13 51.91 L 47.38 54.33 Z"/>
  <path d="M 48.69 53.91 L 48.36 51.18 L 48.05 48.44 L 47.76 45.70 L 47.50 42.95 L 47.12 40.22 L 46.77 37.48 L 46.45 34.74 L 46.15 31.99 L 45.85 32.01 L 45.88 34.78 L 45.93 37.54 L 46.00 40.31 L 46.10 43.08 L 46.37 45.84 L 46.65 48.59 L 46.97 51.34 L 47.31 54.09 Z"/>
  <path d="M 48.68 54.18 L 49.31 51.69 L 49.90 49.20 L 50.46 46.70 L 50.98 44.20 L 51.33 41.66 L 51.64 39.12 L 51.91 36.57 L 52.15 34.02 L 51.85 33.98 L 51.34 36.48 L 50.80 38.97 L 50.22 41.45 L 49.61 43.92 L 49.09 46.41 L 48.54 48.89 L 47.95 51.36 L 47.32 53.82 Z"/>
  <path d="M 48.56 54.42 L 49.74 52.75 L 50.87 51.04 L 51.94 49.31 L 52.96 47.55 L 53.84 45.71 L 54.66 43.85 L 55.43 41.97 L 56.14 40.06 L 55.86 39.94 L 54.95 41.75 L 53.99 43.52 L 52.98 45.25 L 51.91 46.95 L 50.87 48.66 L 49.78 50.33 L 48.64 51.97 L 47.44 53.58 Z"/>
  <path d="M 60.50 53.99 L 60.46 52.72 L 60.40 51.46 L 60.31 50.19 L 60.20 48.93 L 59.97 47.68 L 59.72 46.44 L 59.45 45.20 L 59.15 43.97 L 58.85 44.03 L 58.98 45.28 L 59.08 46.53 L 59.15 47.78 L 59.20 49.03 L 59.31 50.27 L 59.40 51.52 L 59.46 52.76 L 59.50 54.01 Z"/>
  <path d="M 13.45 53.93 L 13.38 53.45 L 13.34 52.97 L 13.31 52.48 L 13.30 52.00 L 13.23 51.51 L 13.19 51.02 L 13.16 50.53 L 13.15 50.02 L 12.85 49.98 L 12.71 50.47 L 12.59 50.98 L 12.48 51.49 L 12.40 52.00 L 12.41 52.52 L 12.44 53.03 L 12.49 53.55 L 12.55 54.07 Z"/>
  <path d="M 14.42 54.17 L 14.61 53.67 L 14.79 53.17 L 14.94 52.66 L 15.08 52.15 L 15.13 51.61 L 15.15 51.08 L 15.16 50.55 L 15.15 50.02 L 14.85 49.98 L 14.72 50.49 L 14.56 50.98 L 14.39 51.46 L 14.21 51.93 L 14.08 52.41 L 13.93 52.89 L 13.77 53.36 L 13.58 53.83 Z"/>
  <path d="M 24.45 53.93 L 24.38 53.45 L 24.34 52.97 L 24.31 52.48 L 24.30 52.00 L 24.23 51.51 L 24.19 51.02 L 24.16 50.53 L 24.15 50.02 L 23.85 49.98 L 23.71 50.47 L 23.59 50.98 L 23.48 51.49 L 23.40 52.00 L 23.41 52.52 L 23.44 53.03 L 23.49 53.55 L 23.55 54.07 Z"/>
  <path d="M 26.50 54.05 L 26.56 53.29 L 26.61 52.52 L 26.64 51.76 L 26.65 51.00 L 26.55 50.24 L 26.44 49.48 L 26.30 48.73 L 26.15 47.99 L 25.85 48.01 L 25.83 48.77 L 25.79 49.52 L 25.73 50.26 L 25.65 51.00 L 25.64 51.74 L 25.61 52.48 L 25.57 53.21 L 25.50 53.95 Z"/>
  <path d="M 27.19 54.16 L 27.55 53.90 L 27.93 53.66 L 28.31 53.46 L 28.69 53.29 L 29.01 53.02 L 29.35 52.77 L 29.72 52.54 L 30.11 52.33 L 29.89 51.67 L 29.41 51.78 L 28.94 51.92 L 28.48 52.09 L 28.03 52.29 L 27.68 52.65 L 27.36 53.03 L 27.07 53.42 L 26.81 53.84 Z"/>
  <path d="M 29.85 52.32 L 30.12 52.53 L 30.36 52.76 L 30.57 53.00 L 30.75 53.25 L 31.02 53.41 L 31.28 53.61 L 31.54 53.84 L 31.77 54.11 L 32.23 53.89 L 32.12 53.50 L 31.98 53.12 L 31.81 52.76 L 31.60 52.40 L 31.26 52.17 L 30.90 51.98 L 30.53 51.82 L 30.15 51.68 Z"/>
  <path d="M 36.45 53.93 L 36.38 53.45 L 36.34 52.97 L 36.31 52.48 L 36.30 52.00 L 36.23 51.51 L 36.19 51.02 L 36.16 50.53 L 36.15 50.02 L 35.85 49.98 L 35.71 50.47 L 35.59 50.98 L 35.48 51.49 L 35.40 52.00 L 35.41 52.52 L 35.44 53.03 L 35.49 53.55 L 35.55 54.07 Z"/>
  <path d="M 38.50 54.05 L 38.56 53.29 L 38.61 52.52 L 38.64 51.76 L 38.65 51.00 L 38.55 50.24 L 38.44 49.48 L 38.30 48.73 L 38.15 47.99 L 37.85 48.01 L 37.83 48.77 L 37.79 49.52 L 37.73 50.26 L 37.65 51.00 L 37.64 51.74 L 37.61 52.48 L 37.57 53.21 L 37.50 53.95 Z"/>
  <path d="M 40.41 54.19 L 40.63 53.69 L 40.82 53.19 L 40.99 52.68 L 41.13 52.16 L 41.17 51.62 L 41.19 51.08 L 41.18 50.54 L 41.15 50.01 L 40.85 49.99 L 40.74 50.50 L 40.60 50.99 L 40.44 51.47 L 40.26 51.94 L 40.13 52.42 L 39.97 52.89 L 39.79 53.35 L 39.59 53.81 Z"/>
  <path d="M 33.23 54.09 L 33.48 53.72 L 33.75 53.36 L 34.04 53.03 L 34.33 52.72 L 34.51 52.34 L 34.72 51.96 L 34.95 51.58 L 35.21 51.22 L 34.79 50.78 L 34.40 51.07 L 34.03 51.38 L 33.67 51.71 L 33.33 52.06 L 33.15 52.51 L 33.00 52.97 L 32.87 53.44 L 32.77 53.91 Z"/>
  <path d="M 34.79 51.22 L 35.05 51.58 L 35.28 51.96 L 35.49 52.34 L 35.67 52.72 L 35.96 53.03 L 36.25 53.36 L 36.52 53.72 L 36.77 54.09 L 37.23 53.91 L 37.13 53.44 L 37.00 52.97 L 36.85 52.51 L 36.67 52.06 L 36.33 51.71 L 35.97 51.38 L 35.60 51.07 L 35.21 50.78 Z"/>
  <path d="M 54.40 53.94 L 54.34 53.45 L 54.31 52.97 L 54.30 52.48 L 54.30 52.00 L 54.23 51.51 L 54.19 51.02 L 54.16 50.53 L 54.15 50.02 L 53.85 49.98 L 53.71 50.47 L 53.59 50.98 L 53.48 51.49 L 53.40 52.00 L 53.42 52.52 L 53.46 53.03 L 53.52 53.55 L 53.60 54.06 Z"/>
  <path d="M 56.42 54.17 L 56.61 53.67 L 56.79 53.17 L 56.94 52.66 L 57.08 52.15 L 57.13 51.61 L 57.15 51.08 L 57.16 50.55 L 57.15 50.02 L 56.85 49.98 L 56.72 50.49 L 56.56 50.98 L 56.39 51.46 L 56.21 51.93 L 56.08 52.41 L 55.93 52.89 L 55.77 53.36 L 55.58 53.83 Z"/>
  <path d="M 5.99 54.60 L 12.49 54.79 L 19.00 54.96 L 25.50 55.12 L 32.00 55.25 L 38.50 55.12 L 45.00 54.96 L 51.51 54.79 L 58.01 54.60 L 57.99 53.40 L 51.49 53.34 L 45.00 53.26 L 38.50 53.17 L 32.00 53.05 L 25.50 53.17 L 19.00 53.26 L 12.51 53.34 L 6.01 53.40 Z"/>
</g>
</svg>
