<svg xmlns="http://www.w3.org/2000/svg" viewBox="0 0 64 64" fill="#8E7441" aria-hidden="true">
<defs>
  <filter id="ink-bleed" x="-10%" y="-10%" width="120%" height="120%">
    <feTurbulence type="fractalNoise" baseFrequency="1.8" numOctaves="2" seed="4" result="noise"/>
    <feDisplacementMap in="SourceGraphic" in2="noise" scale="0.9"/>
    <feGaussianBlur stdDeviation="0.25"/>
  </filter>
</defs>
<g filter="url(#ink-bleed)">
  <path d="M 9.75 18.01 L 9.57 20.29 L 9.30 22.53 L 8.94 24.75 L 8.50 26.94 L 8.39 29.17 L 8.19 31.40 L 7.90 33.63 L 7.52 35.87 L 8.48 36.13 L 9.21 33.94 L 9.86 31.72 L 10.42 29.47 L 10.89 27.21 L 10.86 24.89 L 10.75 22.58 L 10.54 20.28 L 10.25 17.99 Z"/>
  <path d="M 9.75 17.99 L 9.46 20.28 L 9.25 22.58 L 9.14 24.89 L 9.11 27.21 L 9.58 29.47 L 10.14 31.72 L 10.79 33.94 L 11.52 36.13 L 12.48 35.87 L 12.10 33.63 L 11.81 31.40 L 11.61 29.17 L 11.50 26.94 L 11.06 24.75 L 10.70 22.53 L 10.43 20.29 L 10.25 18.01 Z"/>
  <path d="M 9.50 36.00 L 9.47 36.50 L 9.45 37.00 L 9.43 37.50 L 9.40 38.00 L 9.45 38.50 L 9.50 39.00 L 9.55 39.50 L 9.60 40.00 L 10.40 40.00 L 10.45 39.50 L 10.50 39.00 L 10.55 38.50 L 10.60 38.00 L 10.57 37.50 L 10.55 37.00 L 10.53 36.50 L 10.50 36.00 Z"/>
  <path d="M 15.39 24.10 L 15.98 22.83 L 16.68 21.70 L 17.47 20.72 L 18.35 19.87 L 19.11 18.92 L 20.00 18.05 L 21.04 17.26 L 22.23 16.55 L 21.77 15.45 L 20.35 15.99 L 19.03 16.66 L 17.81 17.47 L 16.69 18.42 L 15.94 19.68 L 15.35 21.01 L 14.91 22.42 L 14.61 23.90 Z"/>
  <path d="M 21.77 16.55 L 22.96 17.26 L 24.00 18.05 L 24.89 18.92 L 25.65 19.87 L 26.53 20.72 L 27.32 21.70 L 28.02 22.83 L 28.61 24.10 L 29.39 23.90 L 29.09 22.42 L 28.65 21.01 L 28.06 19.68 L 27.31 18.42 L 26.19 17.47 L 24.97 16.66 L 23.65 15.99 L 22.23 15.45 Z"/>
  <path d="M 28.91 23.61 L 27.73 23.78 L 26.58 24.06 L 25.47 24.45 L 24.40 24.95 L 23.54 25.76 L 22.77 26.66 L 22.09 27.63 L 21.49 28.68 L 22.51 29.32 L 23.20 28.48 L 23.95 27.74 L 24.73 27.11 L 25.56 26.58 L 26.30 25.93 L 27.14 25.34 L 28.07 24.83 L 29.09 24.39 Z"/>
  <path d="M 22.51 28.68 L 21.91 27.63 L 21.23 26.66 L 20.46 25.76 L 19.60 24.95 L 18.53 24.45 L 17.42 24.06 L 16.27 23.78 L 15.09 23.61 L 14.91 24.39 L 15.93 24.83 L 16.86 25.34 L 17.70 25.93 L 18.44 26.58 L 19.27 27.11 L 20.05 27.74 L 20.80 28.48 L 21.49 29.32 Z"/>
  <path d="M 21.40 29.00 L 21.38 30.00 L 21.35 31.00 L 21.32 32.00 L 21.30 33.00 L 21.35 34.00 L 21.40 35.00 L 21.45 36.00 L 21.50 37.00 L 22.50 37.00 L 22.55 36.00 L 22.60 35.00 L 22.65 34.00 L 22.70 33.00 L 22.68 32.00 L 22.65 31.00 L 22.63 30.00 L 22.60 29.00 Z"/>
  <path d="M 33.75 8.01 L 33.48 10.80 L 33.10 13.55 L 32.60 16.26 L 32.00 18.93 L 31.78 21.65 L 31.44 24.38 L 30.99 27.10 L 30.43 29.82 L 31.57 30.18 L 32.54 27.51 L 33.40 24.81 L 34.14 22.07 L 34.78 19.31 L 34.82 16.47 L 34.74 13.64 L 34.55 10.81 L 34.25 7.99 Z"/>
  <path d="M 33.75 7.99 L 33.45 10.81 L 33.26 13.64 L 33.18 16.47 L 33.22 19.31 L 33.86 22.07 L 34.60 24.81 L 35.46 27.51 L 36.43 30.18 L 37.57 29.82 L 37.01 27.10 L 36.56 24.38 L 36.22 21.65 L 36.00 18.93 L 35.40 16.26 L 34.90 13.55 L 34.52 10.80 L 34.25 8.01 Z"/>
  <path d="M 33.40 30.00 L 33.38 30.75 L 33.35 31.50 L 33.33 32.25 L 33.30 33.00 L 33.33 33.75 L 33.35 34.50 L 33.38 35.25 L 33.40 36.00 L 34.60 36.00 L 34.63 35.25 L 34.65 34.50 L 34.67 33.75 L 34.70 33.00 L 34.67 32.25 L 34.65 31.50 L 34.63 30.75 L 34.60 30.00 Z"/>
  <path d="M 41.34 24.08 L 41.75 23.13 L 42.24 22.29 L 42.80 21.56 L 43.42 20.94 L 43.95 20.24 L 44.58 19.59 L 45.33 18.99 L 46.20 18.46 L 45.80 17.54 L 44.75 17.95 L 43.76 18.45 L 42.86 19.06 L 42.04 19.78 L 41.51 20.74 L 41.11 21.75 L 40.83 22.81 L 40.66 23.92 Z"/>
  <path d="M 45.80 18.46 L 46.67 18.99 L 47.42 19.59 L 48.05 20.24 L 48.58 20.94 L 49.20 21.56 L 49.76 22.29 L 50.25 23.13 L 50.66 24.08 L 51.34 23.92 L 51.17 22.81 L 50.89 21.75 L 50.49 20.74 L 49.96 19.78 L 49.14 19.06 L 48.24 18.45 L 47.25 17.95 L 46.20 17.54 Z"/>
  <path d="M 50.91 23.66 L 50.02 23.83 L 49.17 24.07 L 48.35 24.41 L 47.56 24.83 L 46.95 25.47 L 46.42 26.18 L 45.95 26.95 L 45.56 27.77 L 46.44 28.23 L 46.91 27.58 L 47.43 27.00 L 47.98 26.50 L 48.56 26.08 L 49.08 25.57 L 49.68 25.11 L 50.35 24.69 L 51.09 24.34 Z"/>
  <path d="M 46.44 27.77 L 46.05 26.95 L 45.58 26.18 L 45.05 25.47 L 44.44 24.83 L 43.65 24.41 L 42.83 24.07 L 41.98 23.83 L 41.09 23.66 L 40.91 24.34 L 41.65 24.69 L 42.32 25.11 L 42.92 25.57 L 43.44 26.08 L 44.02 26.50 L 44.57 27.00 L 45.09 27.58 L 45.56 28.23 Z"/>
  <path d="M 45.50 28.00 L 45.48 29.13 L 45.45 30.25 L 45.42 31.38 L 45.40 32.50 L 45.45 33.63 L 45.50 34.75 L 45.55 35.88 L 45.60 37.00 L 46.40 37.00 L 46.45 35.88 L 46.50 34.75 L 46.55 33.63 L 46.60 32.50 L 46.58 31.38 L 46.55 30.25 L 46.52 29.13 L 46.50 28.00 Z"/>
  <path d="M 55.75 22.01 L 55.57 23.78 L 55.32 25.53 L 55.00 27.25 L 54.60 28.94 L 54.45 30.67 L 54.21 32.40 L 53.91 34.12 L 53.52 35.85 L 54.48 36.15 L 55.11 34.45 L 55.68 32.73 L 56.17 30.99 L 56.58 29.23 L 56.62 27.41 L 56.57 25.60 L 56.45 23.79 L 56.25 21.99 Z"/>
  <path d="M 55.75 21.99 L 55.55 23.79 L 55.43 25.60 L 55.38 27.41 L 55.42 29.23 L 55.83 30.99 L 56.32 32.73 L 56.89 34.45 L 57.52 36.15 L 58.48 35.85 L 58.09 34.12 L 57.79 32.40 L 57.55 30.67 L 57.40 28.94 L 57.00 27.25 L 56.68 25.53 L 56.43 23.78 L 56.25 22.01 Z"/>
  <path d="M 55.50 36.00 L 55.48 36.50 L 55.45 37.00 L 55.42 37.50 L 55.40 38.00 L 55.45 38.50 L 55.50 39.00 L 55.55 39.50 L 55.60 40.00 L 56.40 40.00 L 56.45 39.50 L 56.50 39.00 L 56.55 38.50 L 56.60 38.00 L 56.58 37.50 L 56.55 37.00 L 56.52 36.50 L 56.50 36.00 Z"/>
  <path d="M 4.17 40.78 L 11.15 39.65 L 18.12 38.89 L 25.07 38.51 L 32.00 38.50 L 38.93 38.54 L 45.87 38.94 L 52.83 39.72 L 59.81 40.88 L 60.19 39.12 L 53.17 37.65 L 46.13 36.56 L 39.07 35.84 L 32.00 35.50 L 24.93 35.86 L 17.88 36.61 L 10.85 37.72 L 3.83 39.22 Z"/>
  <path d="M 14.05 46.60 L 18.05 46.42 L 22.04 46.32 L 26.02 46.32 L 30.00 46.40 L 33.98 46.32 L 37.96 46.32 L 41.95 46.42 L 45.95 46.60 L 46.05 45.40 L 42.05 44.97 L 38.04 44.63 L 34.02 44.37 L 30.00 44.20 L 25.98 44.37 L 21.96 44.63 L 17.95 44.97 L 13.95 45.40 Z"/>
  <path d="M 22.05 54.60 L 24.80 54.48 L 27.54 54.42 L 30.27 54.43 L 33.00 54.50 L 35.73 54.43 L 38.46 54.42 L 41.20 54.48 L 43.95 54.60 L 44.05 53.40 L 41.30 53.08 L 38.54 52.83 L 35.77 52.63 L 33.00 52.50 L 30.23 52.63 L 27.46 52.83 L 24.70 53.08 L 21.95 53.40 Z"/>
  <path d="M 9.19 61.87 L 8.87 59.41 L 8.65 56.94 L 8.53 54.47 L 8.50 52.00 L 8.52 49.52 L 8.65 47.03 L 8.87 44.54 L 9.20 42.04 L 8.80 41.96 L 8.18 44.42 L 7.65 46.91 L 7.23 49.40 L 6.90 51.92 L 6.73 54.45 L 6.65 57.00 L 6.68 59.56 L 6.81 62.13 Z"/>
  <path d="M 14.08 62.23 L 14.37 60.19 L 14.59 58.15 L 14.73 56.11 L 14.80 54.08 L 14.76 52.05 L 14.65 50.02 L 14.46 48.00 L 14.20 45.98 L 13.80 46.02 L 13.81 48.03 L 13.75 50.03 L 13.61 52.02 L 13.40 53.99 L 13.14 55.96 L 12.81 57.91 L 12.40 59.84 L 11.92 61.77 Z"/>
</g>
</svg>
