<svg xmlns="http://www.w3.org/2000/svg" viewBox="0 0 64 64" fill="#8E7441" aria-hidden="true">
<defs>
  <filter id="ink-bleed" x="-10%" y="-10%" width="120%" height="120%">
    <feTurbulence type="fractalNoise" baseFrequency="1.8" numOctaves="2" seed="4" result="noise"/>
    <feDisplacementMap in="SourceGraphic" in2="noise" scale="0.9"/>
    <feGaussianBlur stdDeviation="0.25"/>
  </filter>
</defs>
<g filter="url(#ink-bleed)">
  <path d="M 12.05 16.70 L 13.04 16.73 L 14.03 16.79 L 15.02 16.86 L 16.00 16.95 L 16.98 16.86 L 17.97 16.79 L 18.96 16.73 L 19.95 16.70 L 20.05 15.30 L 19.04 15.14 L 18.03 14.99 L 17.02 14.86 L 16.00 14.75 L 14.98 14.86 L 13.97 14.99 L 12.96 15.14 L 11.95 15.30 Z"/>
  <path d="M 11.30 16.05 L 11.27 17.04 L 11.21 18.03 L 11.14 19.02 L 11.05 20.00 L 11.14 20.98 L 11.21 21.97 L 11.27 22.96 L 11.30 23.95 L 12.70 24.05 L 12.86 23.04 L 13.01 22.03 L 13.14 21.02 L 13.25 20.00 L 13.14 18.98 L 13.01 17.97 L 12.86 16.96 L 12.70 15.95 Z"/>
  <path d="M 19.43 16.19 L 19.50 16.53 L 19.55 16.86 L 19.56 17.18 L 19.55 17.50 L 19.64 17.83 L 19.69 18.17 L 19.72 18.53 L 19.72 18.91 L 20.28 19.09 L 20.50 18.72 L 20.68 18.33 L 20.83 17.92 L 20.95 17.50 L 20.91 17.07 L 20.83 16.64 L 20.72 16.22 L 20.57 15.81 Z"/>
  <path d="M 12.19 24.57 L 12.53 24.50 L 12.86 24.45 L 13.18 24.44 L 13.50 24.45 L 13.83 24.36 L 14.17 24.31 L 14.53 24.28 L 14.91 24.28 L 15.09 23.72 L 14.72 23.50 L 14.33 23.32 L 13.92 23.17 L 13.50 23.05 L 13.07 23.09 L 12.64 23.17 L 12.22 23.28 L 11.81 23.43 Z"/>
  <path d="M 51.95 15.30 L 50.96 15.27 L 49.97 15.21 L 48.98 15.14 L 48.00 15.05 L 47.02 15.14 L 46.03 15.21 L 45.04 15.27 L 44.05 15.30 L 43.95 16.70 L 44.96 16.86 L 45.97 17.01 L 46.98 17.14 L 48.00 17.25 L 49.02 17.14 L 50.03 17.01 L 51.04 16.86 L 52.05 16.70 Z"/>
  <path d="M 51.30 15.95 L 51.14 16.96 L 50.99 17.97 L 50.86 18.98 L 50.75 20.00 L 50.86 21.02 L 50.99 22.03 L 51.14 23.04 L 51.30 24.05 L 52.70 23.95 L 52.73 22.96 L 52.79 21.97 L 52.86 20.98 L 52.95 20.00 L 52.86 19.02 L 52.79 18.03 L 52.73 17.04 L 52.70 16.05 Z"/>
  <path d="M 43.43 15.81 L 43.28 16.22 L 43.17 16.64 L 43.09 17.07 L 43.05 17.50 L 43.17 17.92 L 43.32 18.33 L 43.50 18.72 L 43.72 19.09 L 44.28 18.91 L 44.28 18.53 L 44.31 18.17 L 44.36 17.83 L 44.45 17.50 L 44.44 17.18 L 44.45 16.86 L 44.50 16.53 L 44.57 16.19 Z"/>
  <path d="M 52.19 23.43 L 51.78 23.28 L 51.36 23.17 L 50.93 23.09 L 50.50 23.05 L 50.08 23.17 L 49.67 23.32 L 49.28 23.50 L 48.91 23.72 L 49.09 24.28 L 49.47 24.28 L 49.83 24.31 L 50.17 24.36 L 50.50 24.45 L 50.82 24.44 L 51.14 24.45 L 51.47 24.50 L 51.81 24.57 Z"/>
  <path d="M 11.95 48.70 L 12.96 48.86 L 13.97 49.01 L 14.98 49.14 L 16.00 49.25 L 17.02 49.14 L 18.03 49.01 L 19.04 48.86 L 20.05 48.70 L 19.95 47.30 L 18.96 47.27 L 17.97 47.21 L 16.98 47.14 L 16.00 47.05 L 15.02 47.14 L 14.03 47.21 L 13.04 47.27 L 12.05 47.30 Z"/>
  <path d="M 12.70 47.95 L 12.73 46.96 L 12.79 45.97 L 12.86 44.98 L 12.95 44.00 L 12.86 43.02 L 12.79 42.03 L 12.73 41.04 L 12.70 40.05 L 11.30 39.95 L 11.14 40.96 L 10.99 41.97 L 10.86 42.98 L 10.75 44.00 L 10.86 45.02 L 10.99 46.03 L 11.14 47.04 L 11.30 48.05 Z"/>
  <path d="M 20.57 48.19 L 20.72 47.78 L 20.83 47.36 L 20.91 46.93 L 20.95 46.50 L 20.83 46.08 L 20.68 45.67 L 20.50 45.28 L 20.28 44.91 L 19.72 45.09 L 19.72 45.47 L 19.69 45.83 L 19.64 46.17 L 19.55 46.50 L 19.56 46.82 L 19.55 47.14 L 19.50 47.47 L 19.43 47.81 Z"/>
  <path d="M 11.81 40.57 L 12.22 40.72 L 12.64 40.83 L 13.07 40.91 L 13.50 40.95 L 13.92 40.83 L 14.33 40.68 L 14.72 40.50 L 15.09 40.28 L 14.91 39.72 L 14.53 39.72 L 14.17 39.69 L 13.83 39.64 L 13.50 39.55 L 13.18 39.56 L 12.86 39.55 L 12.53 39.50 L 12.19 39.43 Z"/>
  <path d="M 52.05 47.30 L 51.04 47.14 L 50.03 46.99 L 49.02 46.86 L 48.00 46.75 L 46.98 46.86 L 45.97 46.99 L 44.96 47.14 L 43.95 47.30 L 44.05 48.70 L 45.04 48.73 L 46.03 48.79 L 47.02 48.86 L 48.00 48.95 L 48.98 48.86 L 49.97 48.79 L 50.96 48.73 L 51.95 48.70 Z"/>
  <path d="M 52.70 48.05 L 52.86 47.04 L 53.01 46.03 L 53.14 45.02 L 53.25 44.00 L 53.14 42.98 L 53.01 41.97 L 52.86 40.96 L 52.70 39.95 L 51.30 40.05 L 51.27 41.04 L 51.21 42.03 L 51.14 43.02 L 51.05 44.00 L 51.14 44.98 L 51.21 45.97 L 51.27 46.96 L 51.30 47.95 Z"/>
  <path d="M 44.57 47.81 L 44.50 47.47 L 44.45 47.14 L 44.44 46.82 L 44.45 46.50 L 44.36 46.17 L 44.31 45.83 L 44.28 45.47 L 44.28 45.09 L 43.72 44.91 L 43.50 45.28 L 43.32 45.67 L 43.17 46.08 L 43.05 46.50 L 43.09 46.93 L 43.17 47.36 L 43.28 47.78 L 43.43 48.19 Z"/>
  <path d="M 51.81 39.43 L 51.47 39.50 L 51.14 39.55 L 50.82 39.56 L 50.50 39.55 L 50.17 39.64 L 49.83 39.69 L 49.47 39.72 L 49.09 39.72 L 48.91 40.28 L 49.28 40.50 L 49.67 40.68 L 50.08 40.83 L 50.50 40.95 L 50.93 40.91 L 51.36 40.83 L 51.78 40.72 L 52.19 40.57 Z"/>
  <path d="M 31.83 30.25 L 32.18 30.54 L 32.53 30.83 L 32.88 31.12 L 33.22 31.42 L 33.60 31.67 L 33.97 31.92 L 34.35 32.17 L 34.72 32.42 L 35.28 31.58 L 34.90 31.33 L 34.53 31.08 L 34.15 30.83 L 33.78 30.58 L 33.37 30.38 L 32.97 30.17 L 32.57 29.96 L 32.17 29.75 Z"/>
  <path d="M 34.72 31.58 L 34.35 31.83 L 33.97 32.08 L 33.60 32.33 L 33.22 32.58 L 32.88 32.88 L 32.53 33.17 L 32.18 33.46 L 31.83 33.75 L 32.17 34.25 L 32.57 34.04 L 32.97 33.83 L 33.37 33.62 L 33.78 33.42 L 34.15 33.17 L 34.53 32.92 L 34.90 32.67 L 35.28 32.42 Z"/>
  <path d="M 32.17 33.75 L 31.82 33.46 L 31.47 33.17 L 31.12 32.88 L 30.78 32.58 L 30.40 32.33 L 30.03 32.08 L 29.65 31.83 L 29.28 31.58 L 28.72 32.42 L 29.10 32.67 L 29.47 32.92 L 29.85 33.17 L 30.22 33.42 L 30.63 33.62 L 31.03 33.83 L 31.43 34.04 L 31.83 34.25 Z"/>
  <path d="M 29.28 32.42 L 29.65 32.17 L 30.03 31.92 L 30.40 31.67 L 30.78 31.42 L 31.12 31.12 L 31.47 30.83 L 31.82 30.54 L 32.17 30.25 L 31.83 29.75 L 31.43 29.96 L 31.03 30.17 L 30.63 30.38 L 30.22 30.58 L 29.85 30.83 L 29.47 31.08 L 29.10 31.33 L 28.72 31.58 Z"/>
</g>
</svg>
